<svg width="200" height="200" viewBox="0 0 200 200" xmlns="http://www.w3.org/2000/svg">
  <!-- Outer Circle - Gray -->
  <circle cx="100" cy="100" r="95" fill="none" stroke="#444" stroke-width="8"/>

  <!-- Inner Circle - Darker Gray -->
  <circle cx="100" cy="100" r="75" fill="#1a1a1a"/>

  <!-- Atom Orbits -->
  <ellipse cx="100" cy="100" rx="60" ry="25" fill="none" stroke="#ccc" stroke-width="2" opacity="0.6"/>
  <ellipse cx="100" cy="100" rx="60" ry="25" fill="none" stroke="#ccc" stroke-width="2" opacity="0.6" transform="rotate(60 100 100)"/>
  <ellipse cx="100" cy="100" rx="60" ry="25" fill="none" stroke="#ccc" stroke-width="2" opacity="0.6" transform="rotate(120 100 100)"/>

  <!-- Ethereum-style Diamond - Orange -->
  <g transform="translate(100, 100)">
    <!-- Top part -->
    <polygon points="0,-25 -15,0 15,0" fill="#FF6B00"/>
    <polygon points="-15,0 0,-25 0,5" fill="#FF8C33" opacity="0.8"/>
    <polygon points="15,0 0,-25 0,5" fill="#FF4500" opacity="0.8"/>

    <!-- Bottom part -->
    <polygon points="0,25 -15,0 15,0" fill="#CC5500"/>
    <polygon points="-15,0 0,25 0,5" fill="#FF6B00" opacity="0.9"/>
    <polygon points="15,0 0,25 0,5" fill="#FF4500" opacity="0.9"/>
  </g>

  <!-- Electrons - Small orange circles on orbits -->
  <circle cx="160" cy="100" r="4" fill="#FF6B00"/>
  <circle cx="40" cy="100" r="4" fill="#FF6B00"/>
  <circle cx="130" cy="143" r="4" fill="#FF6B00"/>
  <circle cx="70" cy="57" r="4" fill="#FF6B00"/>
  <circle cx="130" cy="57" r="4" fill="#FF6B00"/>
  <circle cx="70" cy="143" r="4" fill="#FF6B00"/>
</svg>
